<!-- Generated by IcoMoon.io -->
<svg version="1.1" xmlns="http://www.w3.org/2000/svg" width="70" height="70" viewBox="0 0 70 70">
<path d="M32.65 32.735h2.332v10.495h-2.332v-10.495zM41.978 37.399h2.332v5.83h-2.332v-5.83zM23.321 40.898h2.332v2.332h-2.332v-2.332zM16.325 39.731h2.332v3.498h-2.332v-3.498z"></path>
<path d="M3.498 61.886h55.971c1.932 0 3.498-1.566 3.498-3.498v-4.664c0-1.932-1.566-3.498-3.498-3.498h-1.166v-29.079l6.623-6.274c1.537 0.758 3.398 0.298 4.404-1.091s0.865-3.299-0.334-4.525-3.107-1.408-4.517-0.433c-1.41 0.976-1.911 2.826-1.187 4.38l-4.991 4.731v-2.69c0-1.932-1.566-3.498-3.498-3.498h-46.642c-1.932 0-3.498 1.566-3.498 3.498v34.982h-1.166c-1.932 0-3.498 1.566-3.498 3.498v4.664c0 1.932 1.566 3.498 3.498 3.498zM66.465 10.58c0.644 0 1.166 0.522 1.166 1.166s-0.522 1.166-1.166 1.166c-0.644 0-1.166-0.522-1.166-1.166s0.522-1.166 1.166-1.166zM6.996 15.244c0-0.644 0.522-1.166 1.166-1.166h46.642c0.644 0 1.166 0.522 1.166 1.166v4.897l-2.332 2.216v-4.781c0-0.644-0.522-1.166-1.166-1.166h-41.978c-0.644 0-1.166 0.522-1.166 1.166v29.151c0 0.644 0.522 1.166 1.166 1.166h41.978c0.644 0 1.166-0.522 1.166-1.166v-21.163l2.332-2.21v26.87h-48.974v-34.982zM17.491 30.403c-1.578-0.005-2.963 1.047-3.382 2.567s0.23 3.134 1.587 3.939c1.356 0.805 3.084 0.603 4.218-0.494l4.053 2.034c0.471 0.236 1.042 0.125 1.392-0.268l8.616-9.693 8.47 6.347c0.454 0.34 1.089 0.304 1.501-0.086l7.361-6.973v17.787h-39.646v-26.819h39.646v5.82l-8.25 7.813-8.541-6.403c-0.485-0.363-1.168-0.295-1.571 0.158l-8.735 9.828-3.265-1.633c0.024-0.14 0.039-0.281 0.044-0.423 0-1.932-1.566-3.498-3.498-3.498zM18.657 33.901c0 0.644-0.522 1.166-1.166 1.166s-1.166-0.522-1.166-1.166c0-0.644 0.522-1.166 1.166-1.166s1.166 0.522 1.166 1.166zM25.653 52.558h11.661v1.166c0 0.644-0.522 1.166-1.166 1.166h-9.328c-0.644 0-1.166-0.522-1.166-1.166v-1.166zM2.332 53.724c0-0.644 0.522-1.166 1.166-1.166h19.823v1.166c0 1.932 1.566 3.498 3.498 3.498h9.328c1.932 0 3.498-1.566 3.498-3.498v-1.166h19.823c0.644 0 1.166 0.522 1.166 1.166v4.664c0 0.644-0.522 1.166-1.166 1.166h-55.971c-0.644 0-1.166-0.522-1.166-1.166v-4.664z"></path>
</svg>
