<!-- Generated by IcoMoon.io -->
<svg version="1.1" xmlns="http://www.w3.org/2000/svg" width="70" height="70" viewBox="0 0 70 70">
<path d="M67.316 48.338l-18.469-18.605 2.050-10.096c0.529 0.207 1.091 0.314 1.659 0.318h0.014c2.608 0.031 4.747-2.058 4.778-4.666s-2.059-4.747-4.667-4.778c-2.608-0.031-4.747 2.058-4.778 4.666-0.007 0.558 0.086 1.113 0.273 1.639l-10.85 1.324-17.698-17.791c-0.217-0.222-0.514-0.348-0.824-0.35-0.306 0.002-0.6 0.124-0.817 0.339l-3.309 3.29c-0.455 0.456-0.455 1.194 0 1.65l1.78 1.806c-6.897 12.683-4.657 28.389 5.511 38.638 0.093 0.089 0.202 0.162 0.32 0.213-0.073 0.395-0.112 0.795-0.114 1.197v13.533h-14c-3.22 0.004-5.83 2.613-5.833 5.833v2.333c0 0.644 0.522 1.167 1.167 1.167h53.667c0.644 0 1.167-0.522 1.167-1.167v-2.333c-0.004-3.22-2.613-5.829-5.833-5.833h-14v-5.998c2.193 0.46 4.428 0.695 6.669 0.7 5.377-0.006 10.669-1.346 15.4-3.901l1.79 1.8c0.217 0.221 0.514 0.347 0.824 0.35 0.306-0.002 0.6-0.124 0.817-0.339l3.309-3.29c0.455-0.456 0.455-1.194 0-1.65zM50.925 13.635c0.914-0.909 2.391-0.905 3.3 0.009s0.905 2.391-0.009 3.3c-0.437 0.435-1.029 0.679-1.646 0.679h-0.007c-1.289-0.007-2.328-1.057-2.321-2.345 0.003-0.617 0.251-1.207 0.688-1.642h-0.005zM48.178 21.301l-1.309 6.443-2.571-2.587 3.88-3.857zM46.853 19.328l-4.2 4.176-3.249-3.267 7.449-0.909zM52.509 63c1.933 0 3.5 1.567 3.5 3.5v1.167h-51.333v-1.167c0-1.933 1.567-3.5 3.5-3.5h44.333zM36.176 58.333v2.333h-11.667v-2.333h11.667zM24.509 56v-8.867c0-2.83 2.617-5.133 5.833-5.133s5.833 2.303 5.833 5.133v8.867h-11.667zM38.509 52.29v-5.157c0-4.117-3.663-7.467-8.167-7.467-2.912-0.045-5.634 1.437-7.177 3.907-8.876-9.349-10.875-23.286-4.984-34.753l40.692 40.925c-6.283 3.196-13.486 4.096-20.363 2.544zM63.204 50.794l-46.062-46.333 1.651-1.645 17.358 17.456c0.008 0 0.013 0.015 0.021 0.021l28.688 28.856-1.656 1.645z"></path>
<path d="M30.353 44.333h-0.011c-1.933-0.003-3.502 1.562-3.505 3.495s1.562 3.502 3.495 3.505h0.011c1.933 0.003 3.502-1.562 3.505-3.495s-1.562-3.502-3.495-3.505zM31.169 48.661c-0.22 0.218-0.517 0.341-0.827 0.339-0.644-0.003-1.164-0.528-1.161-1.173 0.002-0.308 0.125-0.604 0.344-0.821 0.217-0.216 0.51-0.338 0.817-0.339 0.644 0.003 1.164 0.528 1.16 1.173-0.002 0.308-0.125 0.604-0.344 0.821h0.011z"></path>
</svg>
