<svg aria-hidden="true" style="width: 0; height: 0;" version="1.1" xmlns="http://www.w3.org/2000/svg" xmlns:xlink="http://www.w3.org/1999/xlink">
<defs>
<symbol id="svg-linkedin" viewBox="0 0 40 40">
<path d="M39.99 40v-0.002h0.010v-14.67c0-7.177-1.545-12.705-9.935-12.705-4.033 0-6.74 2.213-7.845 4.312h-0.117v-3.642h-7.955v26.705h8.283v-13.223c0-3.482 0.66-6.848 4.972-6.848 4.248 0 4.312 3.973 4.312 7.072v13.002h8.275zM0.66 13.295h8.293v26.705h-8.293v-26.705zM4.803 0c-2.652 0-4.803 2.152-4.803 4.803s2.152 4.848 4.803 4.848c2.652 0 4.803-2.197 4.803-4.848-0.002-2.652-2.153-4.803-4.803-4.803z"></path>
</symbol>
<symbol id="svg-instagram" viewBox="0 0 40 40">
<path d="M39.961 11.76c-0.094-2.125-0.437-3.586-0.93-4.853-0.508-1.344-1.289-2.547-2.313-3.547-1-1.016-2.211-1.805-3.54-2.305-1.273-0.492-2.727-0.836-4.852-0.93-2.141-0.102-2.821-0.125-8.252-0.125s-6.111 0.024-8.244 0.117c-2.125 0.094-3.587 0.438-4.852 0.93-1.344 0.508-2.547 1.289-3.548 2.313-1.016 1-1.805 2.211-2.305 3.54-0.492 1.274-0.836 2.727-0.93 4.852-0.102 2.141-0.125 2.821-0.125 8.252s0.024 6.11 0.117 8.244c0.094 2.125 0.438 3.586 0.93 4.853 0.508 1.344 1.297 2.547 2.313 3.547 1 1.016 2.211 1.805 3.54 2.305 1.274 0.492 2.727 0.836 4.853 0.93 2.133 0.094 2.813 0.117 8.244 0.117s6.11-0.023 8.244-0.117c2.125-0.094 3.586-0.437 4.852-0.93 2.688-1.039 4.814-3.165 5.853-5.853 0.492-1.274 0.836-2.727 0.93-4.853 0.094-2.133 0.117-2.813 0.117-8.244s-0.008-6.111-0.102-8.244zM36.359 28.091c-0.086 1.954-0.414 3.008-0.688 3.712-0.672 1.743-2.055 3.126-3.798 3.798-0.703 0.274-1.766 0.602-3.712 0.687-2.11 0.094-2.743 0.117-8.080 0.117s-5.978-0.023-8.080-0.117c-1.954-0.086-3.008-0.414-3.712-0.687-0.867-0.32-1.657-0.828-2.297-1.493-0.664-0.649-1.172-1.43-1.493-2.297-0.274-0.703-0.602-1.766-0.687-3.712-0.094-2.11-0.117-2.743-0.117-8.080s0.023-5.978 0.117-8.079c0.086-1.954 0.414-3.008 0.687-3.712 0.321-0.867 0.828-1.657 1.501-2.298 0.648-0.664 1.43-1.172 2.297-1.492 0.703-0.273 1.766-0.602 3.712-0.688 2.11-0.094 2.743-0.117 8.080-0.117 5.345 0 5.978 0.024 8.080 0.117 1.954 0.086 3.008 0.414 3.712 0.688 0.867 0.32 1.656 0.828 2.297 1.492 0.664 0.649 1.172 1.43 1.493 2.298 0.273 0.703 0.602 1.766 0.688 3.712 0.094 2.11 0.117 2.743 0.117 8.079s-0.023 5.962-0.117 8.072z"></path>
<path d="M20.074 9.728c-5.673 0-10.275 4.602-10.275 10.275s4.603 10.275 10.275 10.275c5.673 0 10.276-4.602 10.276-10.275s-4.602-10.275-10.276-10.275zM20.074 26.669c-3.68 0-6.665-2.985-6.665-6.665s2.985-6.665 6.665-6.665c3.681 0 6.665 2.985 6.665 6.665s-2.985 6.665-6.665 6.665zM33.155 9.322c0 1.325-1.074 2.399-2.399 2.399s-2.399-1.074-2.399-2.399c0-1.325 1.074-2.399 2.399-2.399s2.399 1.074 2.399 2.399z"></path>
</symbol>
<symbol id="svg-facebook" viewBox="0 0 40 40">
<path d="M26.662 6.642h3.652v-6.36c-0.63-0.087-2.797-0.282-5.32-0.282-5.265 0-8.872 3.312-8.872 9.398v5.602h-5.81v7.11h5.81v17.89h7.123v-17.888h5.575l0.885-7.11h-6.462v-4.898c0.002-2.055 0.555-3.462 3.418-3.462z"></path>
</symbol>
<symbol id="svg-twitter" viewBox="0 0 40 40">
<path d="M40 7.598c-1.487 0.652-3.073 1.085-4.725 1.295 1.7-1.015 2.998-2.61 3.607-4.533-1.585 0.945-3.335 1.612-5.2 1.985-1.505-1.603-3.65-2.595-5.99-2.595-4.54 0-8.195 3.685-8.195 8.203 0 0.65 0.055 1.275 0.19 1.87-6.817-0.332-12.85-3.6-16.902-8.578-0.707 1.228-1.123 2.632-1.123 4.145 0 2.84 1.462 5.357 3.643 6.815-1.318-0.025-2.61-0.407-3.705-1.010v0.090c0 3.985 2.842 7.295 6.57 8.057-0.668 0.183-1.395 0.27-2.15 0.27-0.525 0-1.055-0.030-1.553-0.14 1.063 3.248 4.078 5.635 7.662 5.713-2.79 2.183-6.332 3.497-10.168 3.497-0.673 0-1.318-0.030-1.963-0.112 3.633 2.343 7.937 3.68 12.58 3.68 15.090 0 23.34-12.5 23.34-23.335 0-0.362-0.012-0.713-0.030-1.060 1.628-1.155 2.995-2.598 4.11-4.258z"></path>
</symbol>
<symbol id="svg-astronaut" viewBox="0 0 40 40">
<path fill="#2196f3" style="fill: var(--color1, #2196f3)" d="M39.968 5.655c-0.079-0.241-0.287-0.417-0.538-0.453l-2.388-0.347-1.069-2.164c-0.224-0.456-0.971-0.456-1.195 0l-1.069 2.164-2.388 0.347c-0.251 0.037-0.459 0.212-0.539 0.453-0.078 0.241-0.013 0.507 0.169 0.683l1.729 1.685-0.408 2.379c-0.043 0.25 0.060 0.503 0.265 0.652 0.207 0.151 0.478 0.169 0.703 0.051l2.136-1.123 2.136 1.123c0.097 0.051 0.205 0.077 0.311 0.077 0.138 0 0.276-0.043 0.392-0.127 0.205-0.149 0.308-0.402 0.265-0.652l-0.408-2.379 1.729-1.685c0.181-0.177 0.246-0.442 0.168-0.683zM36.889 7.314c-0.157 0.153-0.229 0.374-0.191 0.59l0.239 1.393-1.251-0.657c-0.097-0.051-0.204-0.077-0.311-0.077s-0.213 0.025-0.311 0.077l-1.251 0.657 0.239-1.393c0.037-0.216-0.035-0.437-0.191-0.59l-1.013-0.987 1.399-0.203c0.217-0.031 0.405-0.168 0.502-0.365l0.625-1.267 0.625 1.267c0.097 0.197 0.285 0.333 0.502 0.365l1.399 0.203-1.011 0.987z"></path>
<path fill="#2196f3" style="fill: var(--color1, #2196f3)" d="M32.667 25.653h-1.333v1.333h1.333v-1.333z"></path>
<path fill="#2196f3" style="fill: var(--color1, #2196f3)" d="M32.667 28.319h-1.333v1.333h1.333v-1.333z"></path>
<path fill="#2196f3" style="fill: var(--color1, #2196f3)" d="M34 26.986h-1.333v1.333h1.333v-1.333z"></path>
<path fill="#2196f3" style="fill: var(--color1, #2196f3)" d="M31.334 26.986h-1.333v1.333h1.333v-1.333z"></path>
<path fill="#2196f3" style="fill: var(--color1, #2196f3)" d="M28 32.986h-1.333v1.333h1.333v-1.333z"></path>
<path fill="#2196f3" style="fill: var(--color1, #2196f3)" d="M28 35.653h-1.333v1.333h1.333v-1.333z"></path>
<path fill="#2196f3" style="fill: var(--color1, #2196f3)" d="M29.334 34.32h-1.333v1.333h1.333v-1.333z"></path>
<path fill="#2196f3" style="fill: var(--color1, #2196f3)" d="M26.667 34.32h-1.333v1.333h1.333v-1.333z"></path>
<path fill="#2196f3" style="fill: var(--color1, #2196f3)" d="M20 30.32h-1.333v1.333h1.333v-1.333z"></path>
<path fill="#2196f3" style="fill: var(--color1, #2196f3)" d="M20 32.986h-1.333v1.333h1.333v-1.333z"></path>
<path fill="#2196f3" style="fill: var(--color1, #2196f3)" d="M21.333 31.653h-1.333v1.333h1.333v-1.333z"></path>
<path fill="#2196f3" style="fill: var(--color1, #2196f3)" d="M18.667 31.653h-1.333v1.333h1.333v-1.333z"></path>
<path fill="#2196f3" style="fill: var(--color1, #2196f3)" d="M7.333 7.652h-1.333v1.333h1.333v-1.333z"></path>
<path fill="#2196f3" style="fill: var(--color1, #2196f3)" d="M7.333 10.319h-1.333v1.333h1.333v-1.333z"></path>
<path fill="#2196f3" style="fill: var(--color1, #2196f3)" d="M8.666 8.986h-1.333v1.333h1.333v-1.333z"></path>
<path fill="#2196f3" style="fill: var(--color1, #2196f3)" d="M6 8.986h-1.333v1.333h1.333v-1.333z"></path>
<path fill="#212121" style="fill: var(--color2, #212121)" d="M30.893 17.699c-0.359-0.485-0.887-0.797-1.485-0.881-0.601-0.085-1.195 0.073-1.675 0.44l-1.565 1.2-2.372 1.771-1.697-0.676c3.027-1.358 5.142-4.385 5.142-7.9 0-4.779-3.903-8.667-8.701-8.667s-8.701 3.888-8.701 8.667c0 1.732 0.518 3.343 1.4 4.698l-3.455-0.030c-0.002 0-0.004 0-0.006 0-0.011 0-0.019 0.005-0.029 0.006-0.066 0.003-0.131 0.016-0.194 0.039-0.016 0.006-0.033 0.009-0.048 0.017-0.008 0.003-0.016 0.004-0.024 0.008l-4.041 1.995c-0.001 0-0.001 0-0.001 0.001l-2.367 1.138c-0.026 0.011-0.053 0.027-0.079 0.044-0.943 0.628-1.265 1.861-0.748 2.869 0.275 0.536 0.744 0.931 1.32 1.111 0.222 0.069 0.449 0.103 0.674 0.103 0.362 0 0.721-0.089 1.049-0.264l1.735-0.923 2.83-1.461 1.696-0.010-6.802 6.769c-0.001 0.001-0.001 0.001-0.002 0.001l-1.673 1.667c-0.395 0.393-0.613 0.915-0.613 1.472s0.217 1.079 0.613 1.473c0.406 0.404 0.94 0.607 1.474 0.607s1.068-0.203 1.475-0.607l1.643-1.636 2.176-1.625 1.126 1.121-2.202 2.193c-0.001 0.001-0.001 0.001-0.002 0.001l-1.673 1.667c-0.395 0.393-0.613 0.915-0.613 1.472s0.217 1.079 0.613 1.473c0.406 0.404 0.941 0.607 1.475 0.607s1.069-0.203 1.475-0.607l4.352-4.333c0.001-0.001 0.001-0.001 0.001-0.002l1.262-1.25-0.005-0.005c0.008-0.008 0.019-0.011 0.027-0.019l6.457-7.073 4.339 0.617c0.031 0.005 0.063 0.007 0.094 0.007 0.081 0 0.159-0.019 0.234-0.048 0.022-0.008 0.041-0.019 0.062-0.029 0.024-0.012 0.049-0.019 0.072-0.034l4.017-2.667c0.015-0.010 0.023-0.026 0.037-0.037 0.016-0.013 0.036-0.018 0.051-0.032l1.589-1.489c0.827-0.775 0.941-2.044 0.265-2.952zM2.663 22.213c-0.217 0.116-0.463 0.139-0.698 0.065-0.233-0.073-0.423-0.232-0.533-0.447-0.201-0.392-0.085-0.869 0.268-1.127l1.642-0.79 0.561 1.641-1.24 0.659zM7.034 19.928l-1.935 1-0.549-1.604 2.533-1.251-0.049 1.855zM25.909 11.652c0 1.148-0.274 2.231-0.749 3.199l-5.227-2.374c-0.055-0.717-0.427-1.344-0.985-1.735l1.83-6.075c2.972 0.945 5.131 3.718 5.131 6.985zM11.173 11.652c0-4.043 3.305-7.333 7.368-7.333 0.316 0 0.625 0.027 0.931 0.065l-1.79 5.942c-0.024-0.001-0.047-0.007-0.071-0.007-1.291 0-2.341 1.047-2.341 2.333s1.050 2.333 2.341 2.333c0.868 0 1.618-0.479 2.023-1.181l4.828 2.193c-1.343 1.808-3.493 2.987-5.921 2.987-4.063 0-7.368-3.29-7.368-7.333zM18.618 12.652c0 0.551-0.452 1-1.007 1s-1.007-0.449-1.007-1c0-0.551 0.452-1 1.007-1s1.007 0.449 1.007 1zM3.081 31.433c-0.295 0.293-0.773 0.292-1.068 0.001-0.142-0.142-0.22-0.329-0.22-0.529s0.078-0.386 0.22-0.527l1.203-1.198 1.064 1.059-1.199 1.193zM7.098 36.1c-0.295 0.293-0.774 0.293-1.069 0.001-0.142-0.142-0.22-0.329-0.22-0.529s0.078-0.386 0.22-0.527l1.203-1.199 1.065 1.059-1.199 1.194zM11.451 31.764c-0.001 0.001-0.001 0.001-0.002 0.001l-2.206 2.2-1.065-1.059 2.204-2.194c0 0 0 0 0-0.001s0.001-0.001 0.002-0.001c0.050-0.050 0.081-0.11 0.112-0.169 0.009-0.017 0.025-0.032 0.033-0.050 0.021-0.051 0.024-0.107 0.032-0.161 0.004-0.031 0.017-0.059 0.017-0.091 0-0.045-0.016-0.088-0.025-0.132-0.008-0.040-0.008-0.081-0.023-0.119-0.025-0.063-0.069-0.118-0.114-0.172-0.013-0.015-0.017-0.033-0.031-0.047 0 0 0 0-0.001 0s-0.001-0.002-0.001-0.003l-2.009-2c-0.021-0.021-0.049-0.030-0.073-0.048-0.035-0.027-0.069-0.053-0.109-0.072-0.038-0.019-0.077-0.030-0.117-0.041-0.043-0.012-0.084-0.021-0.129-0.025-0.041-0.003-0.079 0.001-0.119 0.006-0.045 0.005-0.087 0.011-0.13 0.025-0.042 0.013-0.079 0.034-0.118 0.056-0.025 0.014-0.053 0.019-0.076 0.036l-2.217 1.655-1.126-1.121 2.999-2.983 5.451 5.361-1.159 1.149zM19.974 22.993c-0.019-0.003-0.037 0.005-0.057 0.003-0.049-0.003-0.095 0.001-0.144 0.009-0.038 0.007-0.074 0.014-0.11 0.027-0.043 0.015-0.081 0.035-0.121 0.059-0.037 0.023-0.071 0.047-0.104 0.077-0.016 0.014-0.035 0.021-0.050 0.037l-5.873 6.432-5.41-5.321 3.541-3.523c0.261-0.26 0.262-0.682 0.002-0.943-0.131-0.131-0.304-0.196-0.477-0.195v-0.001l-2.773 0.017 0.035-2.009 3.88 0.033c1.581 1.617 3.787 2.626 6.227 2.626 0.547 0 1.080-0.057 1.599-0.153 0.050 0.040 0.099 0.081 0.162 0.106l3.012 1.2 0.413 2.055-3.753-0.534zM25.025 23.215l-0.391-1.947 1.808-1.35 1.183 1.571-2.6 1.727zM29.717 19.677l-1.047 0.981-1.164-1.545 1.039-0.797c0.194-0.149 0.439-0.21 0.679-0.179 0.241 0.034 0.455 0.16 0.6 0.355 0.271 0.365 0.225 0.873-0.107 1.184z"></path>
<path fill="#212121" style="fill: var(--color2, #212121)" d="M17.003 23.18l-2.679-2.667c-0.259-0.259-0.681-0.259-0.941 0l-2.678 2.667c-0.125 0.126-0.196 0.295-0.196 0.473s0.070 0.347 0.196 0.473l2.678 2.667c0.13 0.129 0.301 0.194 0.471 0.194s0.341-0.065 0.47-0.194l2.679-2.667c0.125-0.125 0.197-0.295 0.197-0.473s-0.071-0.347-0.197-0.473zM13.854 25.379l-1.733-1.726 1.733-1.726 1.734 1.726-1.734 1.726z"></path>
<path fill="#212121" style="fill: var(--color2, #212121)" d="M21.455 6.338l-0.322 1.295c0.089 0.022 2.172 0.565 2.172 2.686h1.333c-0-2.521-2.082-3.707-3.183-3.981z"></path>
<path fill="#212121" style="fill: var(--color2, #212121)" d="M24.639 11.652h-1.333v1.333h1.333v-1.333z"></path>
</symbol>
<symbol id="svg-clock" viewBox="0 0 40 40">
<path fill="#212121" style="fill: var(--color2, #212121)" d="M39.121 19.127c-0.002-10.565-8.569-19.129-19.135-19.127s-19.129 8.569-19.127 19.135c0.002 8.322 5.384 15.689 13.312 18.22 0.076 0.024 0.154 0.036 0.233 0.036 0.151-0 0.298-0.041 0.428-0.117 0.169-0.1 0.295-0.258 0.354-0.446l4.831-15.313c1.321-0.007 2.386-1.083 2.379-2.404s-1.083-2.386-2.404-2.379c-0.355 0.001-0.706 0.083-1.025 0.239l-6.382-6.383c-0.317-0.306-0.821-0.297-1.127 0.020-0.298 0.309-0.298 0.799 0 1.108l6.379 6.386c-0.489 0.999-0.21 2.205 0.67 2.886l-4.603 14.591c-9.097-3.351-13.756-13.442-10.404-22.54s13.442-13.756 22.54-10.404 13.755 13.443 10.404 22.54c-1.637 4.445-5.001 8.039-9.328 9.967l-0.497-2.343c-0.091-0.431-0.514-0.706-0.945-0.615-0.136 0.029-0.262 0.093-0.366 0.185l-4.796 4.282c-0.329 0.293-0.358 0.796-0.065 1.125 0.095 0.107 0.217 0.186 0.354 0.23l6.123 1.954c0.419 0.135 0.868-0.096 1.002-0.515 0.043-0.132 0.050-0.273 0.021-0.41l-0.489-2.299c7.080-2.985 11.678-9.928 11.661-17.611zM19.99 18.329c0.44 0 0.797 0.357 0.797 0.797s-0.357 0.797-0.797 0.797c-0.44 0-0.797-0.357-0.797-0.797s0.357-0.797 0.797-0.797zM22.616 36.909l2.73-2.435 0.753 3.55-3.484-1.115z"></path>
<path fill="#2196f3" style="fill: var(--color1, #2196f3)" d="M19.193 3.981v1.594c0 0.44 0.357 0.797 0.797 0.797s0.797-0.357 0.797-0.797v-1.594c0-0.44-0.357-0.797-0.797-0.797s-0.797 0.357-0.797 0.797zM4.845 18.329c-0.44 0-0.797 0.357-0.797 0.797s0.357 0.797 0.797 0.797h1.594c0.44 0 0.797-0.357 0.797-0.797s-0.357-0.797-0.797-0.797h-1.594zM35.135 19.924c0.44 0 0.797-0.357 0.797-0.797s-0.357-0.797-0.797-0.797h-1.594c-0.44 0-0.797 0.357-0.797 0.797s0.357 0.797 0.797 0.797h1.594z"></path>
</symbol>
<symbol id="svg-laptop" viewBox="0 0 40 40">
<path fill="#2196f3" style="fill: var(--color1, #2196f3)" d="M18.657 18.706h1.333v5.997h-1.333v-5.997zM23.987 21.371h1.333v3.332h-1.333v-3.332zM13.326 23.37h1.333v1.333h-1.333v-1.333zM9.328 22.704h1.333v1.999h-1.333v-1.999z"></path>
<path fill="#212121" style="fill: var(--color2, #212121)" d="M1.999 35.364h31.983c1.104 0 1.999-0.895 1.999-1.999v-2.665c0-1.104-0.895-1.999-1.999-1.999h-0.666v-16.617l3.785-3.585c0.878 0.433 1.942 0.17 2.517-0.623s0.495-1.885-0.191-2.586-1.775-0.805-2.581-0.247c-0.806 0.558-1.092 1.615-0.678 2.503l-2.852 2.703v-1.537c0-1.104-0.895-1.999-1.999-1.999h-26.653c-1.104 0-1.999 0.895-1.999 1.999v19.99h-0.666c-1.104 0-1.999 0.895-1.999 1.999v2.665c0 1.104 0.895 1.999 1.999 1.999zM37.98 6.046c0.368 0 0.666 0.298 0.666 0.666s-0.298 0.666-0.666 0.666c-0.368 0-0.666-0.298-0.666-0.666s0.298-0.666 0.666-0.666zM3.998 8.711c0-0.368 0.298-0.666 0.666-0.666h26.653c0.368 0 0.666 0.298 0.666 0.666v2.798l-1.333 1.266v-2.732c0-0.368-0.298-0.666-0.666-0.666h-23.987c-0.368 0-0.666 0.298-0.666 0.666v16.658c0 0.368 0.298 0.666 0.666 0.666h23.987c0.368 0 0.666-0.298 0.666-0.666v-12.093l1.333-1.263v15.355h-27.985v-19.99zM9.995 17.373c-0.902-0.003-1.693 0.598-1.933 1.467s0.131 1.791 0.907 2.251c0.775 0.46 1.762 0.345 2.41-0.282l2.316 1.162c0.269 0.135 0.595 0.072 0.795-0.153l4.924-5.539 4.84 3.627c0.26 0.195 0.622 0.174 0.858-0.049l4.206-3.985v10.164h-22.655v-15.325h22.655v3.325l-4.714 4.464-4.881-3.659c-0.277-0.208-0.667-0.169-0.898 0.090l-4.991 5.616-1.866-0.933c0.014-0.080 0.022-0.161 0.025-0.242 0-1.104-0.895-1.999-1.999-1.999zM10.661 19.372c0 0.368-0.298 0.666-0.666 0.666s-0.666-0.298-0.666-0.666c0-0.368 0.298-0.666 0.666-0.666s0.666 0.298 0.666 0.666zM14.659 30.033h6.663v0.666c0 0.368-0.298 0.666-0.666 0.666h-5.331c-0.368 0-0.666-0.298-0.666-0.666v-0.666zM1.333 30.699c0-0.368 0.298-0.666 0.666-0.666h11.327v0.666c0 1.104 0.895 1.999 1.999 1.999h5.331c1.104 0 1.999-0.895 1.999-1.999v-0.666h11.327c0.368 0 0.666 0.298 0.666 0.666v2.665c0 0.368-0.298 0.666-0.666 0.666h-31.983c-0.368 0-0.666-0.298-0.666-0.666v-2.665z"></path>
</symbol>
<symbol id="svg-radar" viewBox="0 0 40 40">
<path fill="#212121" style="fill: var(--color2, #212121)" d="M38.466 27.622l-10.554-10.631 1.171-5.769c0.302 0.118 0.624 0.18 0.948 0.182h0.008c1.49 0.018 2.713-1.176 2.73-2.667s-1.176-2.713-2.667-2.73c-1.49-0.018-2.713 1.176-2.73 2.667-0.004 0.319 0.049 0.636 0.156 0.936l-6.2 0.757-10.113-10.166c-0.124-0.127-0.293-0.199-0.471-0.2-0.175 0.001-0.343 0.071-0.467 0.194l-1.891 1.88c-0.26 0.26-0.26 0.682 0 0.943l1.017 1.032c-3.941 7.247-2.661 16.222 3.149 22.079 0.053 0.051 0.115 0.092 0.183 0.122-0.042 0.226-0.064 0.455-0.065 0.684v7.733h-8c-1.84 0.002-3.331 1.493-3.333 3.333v1.333c0 0.368 0.299 0.667 0.667 0.667h30.667c0.368 0 0.667-0.299 0.667-0.667v-1.333c-0.002-1.84-1.493-3.331-3.333-3.333h-8v-3.427c1.253 0.263 2.53 0.397 3.811 0.4 3.073-0.003 6.096-0.769 8.8-2.229l1.023 1.029c0.124 0.127 0.293 0.199 0.471 0.2 0.175-0.001 0.343-0.071 0.467-0.194l1.891-1.88c0.26-0.26 0.26-0.682 0-0.943zM29.1 7.791c0.522-0.519 1.366-0.517 1.886 0.005s0.517 1.366-0.005 1.886c-0.25 0.249-0.588 0.388-0.941 0.388h-0.004c-0.736-0.004-1.33-0.604-1.326-1.34 0.002-0.352 0.143-0.69 0.393-0.938h-0.003zM27.53 12.172l-0.748 3.682-1.469-1.478 2.217-2.204zM26.773 11.045l-2.4 2.386-1.857-1.867 4.257-0.519zM30.005 36c1.105 0 2 0.895 2 2v0.667h-29.333v-0.667c0-1.105 0.895-2 2-2h25.333zM20.672 33.333v1.333h-6.667v-1.333h6.667zM14.005 32v-5.067c0-1.617 1.495-2.933 3.333-2.933s3.333 1.316 3.333 2.933v5.067h-6.667zM22.005 29.88v-2.947c0-2.353-2.093-4.267-4.667-4.267-1.664-0.026-3.22 0.821-4.101 2.233-5.072-5.342-6.214-13.306-2.848-19.859l23.252 23.386c-3.591 1.827-7.706 2.341-11.636 1.454zM36.116 29.025l-26.321-26.476 0.943-0.94 9.919 9.975c0.005 0 0.007 0.009 0.012 0.012l16.393 16.489-0.946 0.94z"></path>
<path fill="#2196f3" style="fill: var(--color1, #2196f3)" d="M17.344 25.333h-0.006c-1.105-0.002-2.001 0.892-2.003 1.997s0.892 2.001 1.997 2.003h0.006c1.105 0.002 2.001-0.892 2.003-1.997s-0.892-2.001-1.997-2.003zM17.811 27.806c-0.126 0.125-0.296 0.195-0.473 0.194-0.368-0.002-0.665-0.302-0.663-0.67 0.001-0.176 0.072-0.345 0.197-0.469s0.292-0.193 0.467-0.194c0.368 0.002 0.665 0.302 0.663 0.67-0.001 0.176-0.072 0.345-0.196 0.469h0.006z"></path>
</symbol>
<symbol id="svg-circle" viewBox="0 0 40 40">
<path d="M40 20c0 5.523-2.239 10.523-5.858 14.142s-8.619 5.858-14.142 5.858-10.523-2.239-14.142-5.858c-3.619-3.619-5.858-8.619-5.858-14.142s2.239-10.523 5.858-14.142 8.619-5.858 14.142-5.858c5.523 0 10.523 2.239 14.142 5.858s5.858 8.619 5.858 14.142z"></path>
</symbol>
</defs>
</svg>
