<svg aria-hidden="true" style="position: absolute; width: 0; height: 0; overflow: hidden;" version="1.1" xmlns="http://www.w3.org/2000/svg" xmlns:xlink="http://www.w3.org/1999/xlink">
<defs>
<symbol id="svg-twitter" viewBox="0 0 40 40">
<path fill="#fff" style="fill: var(--color1, #fff)" d="M40 20c0 5.523-2.239 10.523-5.858 14.142s-8.619 5.858-14.142 5.858-10.523-2.239-14.142-5.858c-3.619-3.619-5.858-8.619-5.858-14.142s2.239-10.523 5.858-14.142 8.619-5.858 14.142-5.858c5.523 0 10.523 2.239 14.142 5.858s5.858 8.619 5.858 14.142z"></path>
<path fill="#afb1b8" style="fill: var(--color2, #afb1b8)" d="M29.091 14.363c-0.676 0.297-1.397 0.493-2.148 0.589 0.773-0.461 1.363-1.186 1.64-2.060-0.72 0.43-1.516 0.733-2.364 0.902-0.684-0.728-1.659-1.18-2.723-1.18-2.064 0-3.725 1.675-3.725 3.728 0 0.295 0.025 0.579 0.086 0.85-3.099-0.151-5.841-1.636-7.683-3.899-0.322 0.558-0.51 1.197-0.51 1.884 0 1.291 0.665 2.435 1.656 3.098-0.599-0.011-1.186-0.185-1.684-0.459v0.041c0 1.811 1.292 3.316 2.986 3.662-0.303 0.083-0.634 0.123-0.977 0.123-0.239 0-0.48-0.014-0.706-0.064 0.483 1.476 1.853 2.561 3.483 2.597-1.268 0.992-2.878 1.59-4.622 1.59-0.306 0-0.599-0.014-0.892-0.051 1.651 1.065 3.608 1.673 5.718 1.673 6.859 0 10.609-5.682 10.609-10.607 0-0.165-0.006-0.324-0.014-0.482 0.74-0.525 1.361-1.181 1.868-1.935z"></path>
</symbol>
<symbol id="svg-facebook" viewBox="0 0 40 40">
<path fill="#fff" style="fill: var(--color1, #fff)" d="M40 20c0 5.523-2.239 10.523-5.858 14.142s-8.619 5.858-14.142 5.858-10.523-2.239-14.142-5.858c-3.619-3.619-5.858-8.619-5.858-14.142s2.239-10.523 5.858-14.142 8.619-5.858 14.142-5.858c5.523 0 10.523 2.239 14.142 5.858s5.858 8.619 5.858 14.142z"></path>
<path fill="#afb1b8" style="fill: var(--color2, #afb1b8)" d="M23.028 13.928h1.66v-2.891c-0.286-0.039-1.271-0.128-2.418-0.128-2.393 0-4.033 1.505-4.033 4.272v2.546h-2.641v3.232h2.641v8.132h3.238v-8.131h2.534l0.402-3.232h-2.937v-2.226c0.001-0.934 0.252-1.574 1.554-1.574z"></path>
</symbol>
<symbol id="svg-linkedin" viewBox="0 0 40 40">
<path fill="#fff" style="fill: var(--color1, #fff)" d="M40 20c0 5.523-2.239 10.523-5.858 14.142s-8.619 5.858-14.142 5.858-10.523-2.239-14.142-5.858c-3.619-3.619-5.858-8.619-5.858-14.142s2.239-10.523 5.858-14.142 8.619-5.858 14.142-5.858c5.523 0 10.523 2.239 14.142 5.858s5.858 8.619 5.858 14.142z"></path>
<path fill="#afb1b8" style="fill: var(--color2, #afb1b8)" d="M29.086 29.091v-0.001h0.005v-6.668c0-3.262-0.702-5.775-4.516-5.775-1.833 0-3.064 1.006-3.566 1.96h-0.053v-1.655h-3.616v12.139h3.765v-6.011c0-1.583 0.3-3.113 2.26-3.113 1.931 0 1.96 1.806 1.96 3.214v5.91h3.761zM11.209 16.952h3.77v12.139h-3.77v-12.139zM13.092 10.909c-1.205 0-2.183 0.978-2.183 2.183s0.978 2.204 2.183 2.204c1.205 0 2.183-0.998 2.183-2.204s-0.979-2.183-2.183-2.183z"></path>
</symbol>
<symbol id="svg-instagramm" viewBox="0 0 40 40">
<path fill="#fff" style="fill: var(--color1, #fff)" d="M40 20c0 5.523-2.239 10.523-5.858 14.142s-8.619 5.858-14.142 5.858-10.523-2.239-14.142-5.858c-3.619-3.619-5.858-8.619-5.858-14.142s2.239-10.523 5.858-14.142 8.619-5.858 14.142-5.858c5.523 0 10.523 2.239 14.142 5.858s5.858 8.619 5.858 14.142z"></path>
<path fill="#afb1b8" style="fill: var(--color2, #afb1b8)" d="M29.073 16.255c-0.043-0.966-0.199-1.63-0.423-2.206-0.231-0.611-0.586-1.158-1.051-1.612-0.455-0.462-1.005-0.821-1.609-1.048-0.579-0.224-1.24-0.38-2.206-0.423-0.973-0.046-1.282-0.057-3.751-0.057s-2.778 0.011-3.747 0.053c-0.966 0.043-1.63 0.199-2.206 0.423-0.611 0.231-1.158 0.586-1.613 1.051-0.462 0.455-0.82 1.005-1.048 1.609-0.224 0.579-0.38 1.24-0.423 2.206-0.046 0.973-0.057 1.282-0.057 3.751s0.011 2.777 0.053 3.747c0.043 0.966 0.199 1.63 0.423 2.206 0.231 0.611 0.59 1.158 1.051 1.612 0.455 0.462 1.005 0.821 1.609 1.048 0.579 0.224 1.24 0.38 2.206 0.423 0.97 0.043 1.279 0.053 3.747 0.053s2.777-0.011 3.747-0.053c0.966-0.043 1.63-0.199 2.206-0.423 1.222-0.472 2.188-1.439 2.66-2.66 0.224-0.579 0.38-1.24 0.423-2.206 0.043-0.97 0.053-1.279 0.053-3.747s-0.004-2.778-0.046-3.747zM27.436 23.678c-0.039 0.888-0.188 1.367-0.313 1.687-0.306 0.792-0.934 1.421-1.726 1.726-0.32 0.124-0.803 0.273-1.687 0.312-0.959 0.043-1.247 0.053-3.673 0.053s-2.717-0.011-3.673-0.053c-0.888-0.039-1.367-0.188-1.687-0.312-0.394-0.146-0.753-0.377-1.044-0.678-0.302-0.295-0.533-0.65-0.678-1.044-0.124-0.32-0.273-0.803-0.312-1.687-0.043-0.959-0.053-1.247-0.053-3.673s0.011-2.717 0.053-3.673c0.039-0.888 0.188-1.367 0.312-1.687 0.146-0.394 0.377-0.753 0.682-1.044 0.295-0.302 0.65-0.533 1.044-0.678 0.32-0.124 0.803-0.273 1.687-0.313 0.959-0.043 1.247-0.053 3.673-0.053 2.43 0 2.717 0.011 3.673 0.053 0.888 0.039 1.367 0.188 1.687 0.313 0.394 0.146 0.753 0.376 1.044 0.678 0.302 0.295 0.533 0.65 0.678 1.044 0.124 0.32 0.273 0.803 0.313 1.687 0.043 0.959 0.053 1.247 0.053 3.673s-0.011 2.71-0.053 3.669z"></path>
<path fill="#afb1b8" style="fill: var(--color2, #afb1b8)" d="M20.034 15.331c-2.579 0-4.671 2.092-4.671 4.671s2.092 4.671 4.671 4.671c2.579 0 4.671-2.092 4.671-4.671s-2.092-4.671-4.671-4.671zM20.034 23.031c-1.673 0-3.030-1.357-3.030-3.030s1.357-3.030 3.030-3.030c1.673 0 3.030 1.357 3.030 3.030s-1.357 3.030-3.030 3.030zM25.98 15.146c0 0.602-0.488 1.090-1.091 1.090s-1.090-0.488-1.090-1.090c0-0.602 0.488-1.090 1.090-1.090s1.091 0.488 1.091 1.090z"></path>
</symbol>
</defs>
</svg>
