<svg aria-hidden="true" style="position: absolute; width: 0; height: 0; overflow: hidden;" version="1.1" xmlns="http://www.w3.org/2000/svg" xmlns:xlink="http://www.w3.org/1999/xlink">
<defs>
<symbol id="svg-send-icon" viewBox="0 0 40 40">
<path d="M40 0l-40 22.5 12.783 4.734 19.717-18.484-14.997 20.233 0.012 0.004-0.015-0.004v11.017l7.169-8.364 9.081 3.364 6.25-35z"></path>
</symbol>
<symbol id="svg-mail" viewBox="-2 4 45 30">
<path d="M35 5h-30c-2.063 0-3.731 1.688-3.731 3.75l-0.019 22.5c0 2.063 1.688 3.75 3.75 3.75h30c2.063 0 3.75-1.688 3.75-3.75v-22.5c0-2.063-1.688-3.75-3.75-3.75zM34.25 12.969l-13.256 8.287c-0.6 0.375-1.387 0.375-1.988 0l-13.256-8.287c-0.469-0.3-0.75-0.806-0.75-1.35 0-1.256 1.369-2.006 2.437-1.35l12.563 7.856 12.563-7.856c1.069-0.656 2.437 0.094 2.437 1.35 0 0.544-0.281 1.050-0.75 1.35z"></path>
</symbol>
<symbol id="svg-email" viewBox="0 0 40 40">
<path d="M36.25 5h-32.5c-2.068 0-3.75 1.682-3.75 3.75v22.5c0 2.068 1.682 3.75 3.75 3.75h32.5c2.068 0 3.75-1.682 3.75-3.75v-22.5c0-2.068-1.682-3.75-3.75-3.75zM36.25 7.5c0.17 0 0.331 0.035 0.479 0.097l-16.729 14.499-16.729-14.499c0.148-0.061 0.309-0.097 0.479-0.097h32.5zM36.25 32.5h-32.5c-0.69 0-1.25-0.56-1.25-1.25v-21.012l16.681 14.457c0.236 0.204 0.527 0.305 0.819 0.305s0.583-0.101 0.819-0.305l16.681-14.457v21.012c0 0.69-0.56 1.25-1.25 1.25z"></path>
</symbol>
<symbol id="svg-cross" viewBox="0 0 40 40">
<path d="M40 4.029l-4.029-4.029-15.971 15.971-15.971-15.971-4.029 4.029 15.971 15.971-15.971 15.971 4.029 4.029 15.971-15.971 15.971 15.971 4.029-4.029-15.971-15.971 15.971-15.971z"></path>
</symbol>
<symbol id="svg-telephone" viewBox="-4 -4 49 51">
<path d="M34.274 26.065l-5.252-0.6c-1.261-0.145-2.502 0.289-3.391 1.179l-3.804 3.804c-5.851-2.977-10.648-7.754-13.626-13.626l3.825-3.825c0.889-0.889 1.323-2.13 1.179-3.391l-0.6-5.211c-0.248-2.088-2.006-3.66-4.115-3.66h-3.577c-2.336 0-4.28 1.944-4.135 4.28 1.096 17.658 15.218 31.759 32.855 32.855 2.336 0.145 4.28-1.799 4.28-4.135v-3.577c0.021-2.088-1.551-3.846-3.639-4.094z"></path>
</symbol>
<symbol id="svg-smartphone" viewBox="0 0 25 40">
<path d="M21.25 0h-17.5c-2.068 0-3.75 1.682-3.75 3.75v32.5c0 2.068 1.682 3.75 3.75 3.75h17.5c2.068 0 3.75-1.682 3.75-3.75v-32.5c0-2.068-1.682-3.75-3.75-3.75zM3.75 2.5h17.5c0.69 0 1.25 0.56 1.25 1.25v26.25h-20v-26.25c0-0.69 0.56-1.25 1.25-1.25zM21.25 37.5h-17.5c-0.69 0-1.25-0.56-1.25-1.25v-3.75h20v3.75c0 0.69-0.56 1.25-1.25 1.25z"></path>
<path d="M5.884 34.347c0.488 0.456 0.488 1.195 0 1.651s-1.28 0.456-1.768 0c-0.488-0.456-0.488-1.195 0-1.651s1.28-0.456 1.768 0z"></path>
</symbol>
<symbol id="svg-people" viewBox="-8 -8 60 50">
<path d="M20 20c5.525 0 10-4.475 10-10s-4.475-10-10-10c-5.525 0-10 4.475-10 10s4.475 10 10 10zM20 25c-6.675 0-20 3.35-20 10v2.5c0 1.375 1.125 2.5 2.5 2.5h35c1.375 0 2.5-1.125 2.5-2.5v-2.5c0-6.65-13.325-10-20-10z"></path>
</symbol>
<symbol id="peters-company" viewBox="0 0 81 40">
<path d="M12.52 12.479h-0.003c-2.284 0-4.135 1.645-4.135 3.675v0.002c0 2.030 1.851 3.675 4.135 3.675h0.003c2.284 0 4.135-1.645 4.135-3.675v-0.002c0-2.030-1.851-3.675-4.135-3.675zM43.043 11.304c-0.006-2.819-1.269-5.521-3.512-7.515s-5.283-3.116-8.455-3.123c-3.173 0.005-6.214 1.127-8.458 3.121s-3.508 4.696-3.514 7.516v15.546s23.937-2.369 23.939-15.543v-0.002zM0 31.952c0.006 1.962 0.885 3.841 2.445 5.228s3.675 2.169 5.882 2.175c2.207-0.006 4.321-0.787 5.881-2.174s2.44-3.266 2.446-5.227v-10.817s-16.656 1.65-16.656 10.814zM8.328 33.89c-0.431 0-0.853-0.114-1.212-0.327s-0.638-0.516-0.803-0.87c-0.165-0.354-0.208-0.744-0.124-1.12s0.292-0.721 0.597-0.992 0.694-0.456 1.117-0.53c0.423-0.075 0.862-0.036 1.26 0.11s0.739 0.395 0.979 0.714c0.24 0.319 0.368 0.693 0.368 1.077 0.001 0.255-0.055 0.508-0.164 0.744s-0.27 0.45-0.472 0.631c-0.203 0.181-0.443 0.324-0.709 0.422s-0.549 0.148-0.836 0.148v-0.007zM25.16 32.823h-1.607v1.66h-0.837v-4.062h2.645v0.678h-1.808v1.049h1.607v0.675zM29.183 32.544c0 0.4-0.071 0.751-0.212 1.052s-0.344 0.534-0.608 0.698c-0.262 0.164-0.564 0.246-0.904 0.246-0.337 0-0.637-0.081-0.901-0.243s-0.469-0.392-0.614-0.692c-0.145-0.301-0.219-0.647-0.22-1.038v-0.201c0-0.4 0.072-0.752 0.215-1.055 0.145-0.305 0.349-0.539 0.611-0.7 0.264-0.164 0.566-0.246 0.904-0.246s0.639 0.082 0.901 0.246c0.264 0.162 0.468 0.395 0.611 0.7 0.145 0.303 0.218 0.654 0.218 1.052v0.181zM28.335 32.359c0-0.426-0.076-0.75-0.229-0.971s-0.37-0.332-0.653-0.332c-0.281 0-0.498 0.11-0.65 0.329-0.152 0.218-0.23 0.538-0.232 0.96v0.198c0 0.415 0.076 0.737 0.229 0.965s0.372 0.343 0.658 0.343c0.281 0 0.497-0.11 0.647-0.329 0.151-0.221 0.227-0.543 0.229-0.965v-0.198zM31.898 33.417c0-0.158-0.056-0.279-0.167-0.363-0.112-0.086-0.312-0.175-0.603-0.268-0.29-0.095-0.52-0.188-0.689-0.279-0.461-0.249-0.692-0.585-0.692-1.007 0-0.22 0.061-0.415 0.184-0.586 0.125-0.173 0.302-0.308 0.533-0.405 0.232-0.097 0.493-0.145 0.781-0.145 0.29 0 0.549 0.053 0.776 0.159 0.227 0.104 0.403 0.252 0.527 0.444 0.126 0.192 0.19 0.409 0.19 0.653h-0.837c0-0.186-0.059-0.33-0.176-0.432-0.117-0.104-0.282-0.156-0.494-0.156-0.205 0-0.364 0.044-0.477 0.131-0.114 0.086-0.17 0.199-0.17 0.34 0 0.132 0.066 0.243 0.198 0.332 0.134 0.089 0.33 0.173 0.589 0.251 0.476 0.143 0.823 0.321 1.041 0.533s0.326 0.476 0.326 0.792c0 0.352-0.133 0.628-0.399 0.829-0.266 0.199-0.624 0.299-1.074 0.299-0.312 0-0.597-0.057-0.854-0.17-0.257-0.115-0.453-0.272-0.589-0.472-0.134-0.199-0.201-0.43-0.201-0.692h0.84c0 0.448 0.268 0.672 0.804 0.672 0.199 0 0.354-0.040 0.466-0.12 0.112-0.082 0.167-0.195 0.167-0.34zM36.365 31.098h-1.244v3.384h-0.837v-3.384h-1.228v-0.678h3.309v0.678zM39.289 32.722h-1.607v1.088h1.886v0.672h-2.723v-4.062h2.718v0.678h-1.881v0.968h1.607v0.656zM41.563 32.996h-0.667v1.487h-0.837v-4.062h1.51c0.48 0 0.85 0.107 1.11 0.321s0.391 0.516 0.391 0.907c0 0.277-0.060 0.509-0.181 0.695-0.119 0.184-0.3 0.331-0.544 0.441l0.879 1.66v0.039h-0.898l-0.762-1.487zM40.896 32.318h0.675c0.21 0 0.373-0.053 0.488-0.159 0.115-0.108 0.173-0.256 0.173-0.444 0-0.192-0.055-0.342-0.165-0.452-0.108-0.11-0.274-0.165-0.499-0.165h-0.672v1.219zM45.969 33.051v1.431h-0.837v-4.062h1.585c0.305 0 0.573 0.056 0.804 0.167 0.232 0.112 0.411 0.271 0.536 0.477 0.125 0.205 0.187 0.438 0.187 0.7 0 0.398-0.137 0.712-0.41 0.943-0.272 0.229-0.648 0.343-1.13 0.343h-0.734zM45.969 32.373h0.748c0.221 0 0.39-0.052 0.505-0.156 0.117-0.104 0.176-0.253 0.176-0.446 0-0.199-0.059-0.36-0.176-0.483s-0.279-0.186-0.486-0.19h-0.767v1.275zM51.265 32.722h-1.607v1.088h1.886v0.672h-2.723v-4.062h2.718v0.678h-1.881v0.968h1.607v0.656zM55.148 31.098h-1.244v3.384h-0.837v-3.384h-1.228v-0.678h3.309v0.678zM58.073 32.722h-1.607v1.088h1.886v0.672h-2.723v-4.062h2.718v0.678h-1.881v0.968h1.607v0.656zM60.347 32.996h-0.667v1.487h-0.837v-4.062h1.509c0.48 0 0.85 0.107 1.11 0.321s0.391 0.516 0.391 0.907c0 0.277-0.060 0.509-0.181 0.695-0.119 0.184-0.3 0.331-0.544 0.441l0.879 1.66v0.039h-0.898l-0.762-1.487zM59.68 32.318h0.675c0.21 0 0.373-0.053 0.488-0.159 0.115-0.108 0.173-0.256 0.173-0.444 0-0.192-0.055-0.342-0.165-0.452-0.108-0.11-0.274-0.165-0.499-0.165h-0.672v1.219zM64.599 33.417c0-0.158-0.056-0.279-0.167-0.363-0.112-0.086-0.312-0.175-0.603-0.268-0.29-0.095-0.52-0.188-0.689-0.279-0.461-0.249-0.692-0.585-0.692-1.007 0-0.22 0.061-0.415 0.184-0.586 0.125-0.173 0.302-0.308 0.533-0.405 0.233-0.097 0.493-0.145 0.781-0.145 0.29 0 0.549 0.053 0.776 0.159 0.227 0.104 0.403 0.252 0.527 0.444 0.126 0.192 0.19 0.409 0.19 0.653h-0.837c0-0.186-0.059-0.33-0.176-0.432-0.117-0.104-0.282-0.156-0.494-0.156-0.205 0-0.364 0.044-0.477 0.131-0.113 0.086-0.17 0.199-0.17 0.34 0 0.132 0.066 0.243 0.198 0.332 0.134 0.089 0.33 0.173 0.589 0.251 0.476 0.143 0.823 0.321 1.041 0.533s0.326 0.476 0.326 0.792c0 0.352-0.133 0.628-0.399 0.829-0.266 0.199-0.624 0.299-1.074 0.299-0.313 0-0.597-0.057-0.854-0.17-0.257-0.115-0.453-0.272-0.589-0.472-0.134-0.199-0.201-0.43-0.201-0.692h0.84c0 0.448 0.268 0.672 0.804 0.672 0.199 0 0.354-0.040 0.466-0.12 0.112-0.082 0.167-0.195 0.167-0.34z"></path>
</symbol>
<symbol id="windows-company" viewBox="0 0 31 40">
<path d="M13.164 2.257h-0.105c-0.161-0.010-0.323-0.014-0.485-0.018h-0.35c-0.306 0-0.617 0.008-0.926 0.023-0.023-0.002-0.047-0.002-0.070 0-2.803 0.159-5.55 0.859-8.089 2.064l-0.333 0.16v17.032l0.778-0.264c0.683-0.235 1.411-0.446 2.164-0.642 2.036-0.523 4.126-0.8 6.227-0.827v2.238c-0.278 0.002-0.549 0.010-0.819 0.024h-0.064c-1.617 0.089-3.221 0.335-4.791 0.735-1.988 0.498-3.905 1.245-5.707 2.224v-21.844c1.872-1.092 3.887-1.912 5.988-2.435 1.844-0.476 3.739-0.721 5.643-0.728h0.329c0.393 0.010 0.776 0.027 1.136 0.055 0.948 0.067 1.889 0.216 2.812 0.448v2.203c-0.896-0.209-1.807-0.346-2.724-0.411-0.019-0.002-0.037-0.003-0.056-0.005-0.19-0.016-0.38-0.032-0.557-0.032zM17.041 4.509c0.488 0.037 0.994 0.055 1.506 0.055 2.001-0.007 3.994-0.263 5.933-0.761 1.987-0.5 3.904-1.247 5.706-2.226v21.454c-1.873 1.091-3.889 1.911-5.99 2.435-1.844 0.474-3.74 0.718-5.643 0.726-1.442 0.012-2.881-0.158-4.281-0.505v-21.593c0.331 0.076 0.671 0.147 1.018 0.205 0.568 0.096 1.168 0.166 1.751 0.209zM27.959 4.675l-0.778 0.262c-0.716 0.241-1.438 0.456-2.164 0.647-2.113 0.543-4.285 0.822-6.466 0.829-0.508 0-0.975-0.014-1.426-0.043l-0.621-0.041v17.521l0.533 0.047c0.494 0.043 1.004 0.065 1.518 0.065 1.718-0.007 3.429-0.229 5.093-0.659 1.37-0.344 2.703-0.823 3.979-1.43l0.333-0.16v-17.038z"></path>
<path d="M2.105 32.471c-0.112-0.116-0.247-0.207-0.396-0.268s-0.309-0.088-0.47-0.083c-0.171-0.002-0.341 0.030-0.5 0.094-0.146 0.058-0.278 0.145-0.389 0.256-0.11 0.111-0.195 0.245-0.251 0.391-0.061 0.154-0.091 0.318-0.090 0.483v2.918c-0.007 0.206 0.032 0.41 0.115 0.599 0.069 0.15 0.168 0.283 0.292 0.391 0.117 0.098 0.254 0.169 0.401 0.207 0.142 0.040 0.289 0.060 0.436 0.061 0.163 0.002 0.323-0.033 0.471-0.102 0.146-0.064 0.278-0.156 0.389-0.27 0.108-0.113 0.195-0.246 0.255-0.391 0.062-0.147 0.094-0.306 0.093-0.466v-0.327h-0.763v0.26c0.002 0.089-0.013 0.177-0.045 0.26-0.025 0.062-0.063 0.118-0.111 0.164-0.047 0.038-0.101 0.067-0.16 0.084-0.052 0.017-0.105 0.026-0.16 0.027-0.068 0.008-0.137-0.002-0.2-0.030s-0.117-0.071-0.158-0.127c-0.072-0.117-0.107-0.254-0.101-0.391v-2.721c-0.005-0.151 0.027-0.301 0.093-0.436 0.040-0.062 0.096-0.111 0.162-0.142s0.139-0.043 0.212-0.034c0.066-0.002 0.131 0.011 0.19 0.040s0.111 0.071 0.15 0.124c0.085 0.112 0.13 0.25 0.126 0.391v0.252h0.755v-0.297c0.002-0.175-0.030-0.348-0.093-0.511-0.056-0.153-0.143-0.293-0.255-0.411zM6.638 32.438c-0.243-0.205-0.55-0.319-0.868-0.321-0.155 0.001-0.309 0.028-0.455 0.082-0.148 0.053-0.285 0.134-0.403 0.239-0.126 0.114-0.227 0.253-0.296 0.409-0.077 0.178-0.115 0.371-0.111 0.565v2.799c-0.005 0.197 0.033 0.393 0.111 0.573 0.069 0.15 0.17 0.284 0.296 0.391 0.117 0.108 0.254 0.192 0.403 0.247 0.146 0.054 0.3 0.081 0.455 0.082 0.155-0 0.31-0.028 0.455-0.082 0.152-0.055 0.292-0.139 0.413-0.247 0.122-0.109 0.22-0.242 0.288-0.391 0.078-0.181 0.116-0.376 0.111-0.573v-2.799c0.004-0.194-0.034-0.387-0.111-0.565-0.068-0.154-0.166-0.293-0.288-0.409zM6.282 36.211c0.006 0.075-0.004 0.15-0.030 0.22s-0.068 0.133-0.122 0.185c-0.101 0.084-0.228 0.131-0.359 0.131s-0.258-0.046-0.359-0.131c-0.054-0.052-0.095-0.115-0.122-0.185s-0.037-0.145-0.030-0.22v-2.799c-0.006-0.075 0.004-0.15 0.030-0.22s0.068-0.133 0.122-0.185c0.101-0.084 0.228-0.131 0.359-0.131s0.258 0.046 0.359 0.131c0.054 0.052 0.095 0.115 0.122 0.185s0.037 0.145 0.030 0.22v2.799zM12.59 37.461v-5.299h-0.734l-0.963 2.805h-0.014l-0.971-2.805h-0.726v5.299h0.757v-3.224h0.014l0.741 2.279h0.378l0.747-2.279h0.014v3.224h0.757zM16.891 32.534c-0.117-0.131-0.264-0.23-0.428-0.29-0.177-0.058-0.363-0.085-0.549-0.082h-1.125v5.299h0.755v-2.070h0.389c0.236 0.011 0.47-0.039 0.681-0.145 0.172-0.095 0.315-0.235 0.415-0.405 0.087-0.141 0.146-0.298 0.173-0.462 0.030-0.199 0.043-0.401 0.041-0.602 0.007-0.254-0.017-0.509-0.074-0.757-0.050-0.183-0.146-0.351-0.278-0.487zM16.502 34.149c-0.003 0.096-0.027 0.19-0.070 0.276-0.043 0.081-0.111 0.147-0.195 0.186-0.112 0.050-0.234 0.073-0.356 0.067h-0.344v-1.802h0.389c0.117-0.006 0.234 0.017 0.341 0.066 0.078 0.045 0.14 0.113 0.177 0.196 0.041 0.093 0.064 0.194 0.066 0.295v0.352c0 0.123 0.008 0.25 0 0.364h-0.008zM20.467 32.162h-0.619l-1.168 5.299h0.755l0.222-1.138h1.029l0.222 1.138h0.755l-1.197-5.299zM19.771 35.601l0.372-1.921h0.014l0.37 1.921h-0.755zM25.346 35.354h-0.014l-1.14-3.192h-0.726v5.299h0.755v-3.186h0.016l1.154 3.186h0.71v-5.299h-0.755v3.192zM29.96 32.162l-0.607 2.107h-0.016l-0.607-2.107h-0.8l1.037 3.059v2.24h0.755v-2.24l1.037-3.059h-0.8zM0 38.957h0.364v1.021h0.247v-1.021h0.362v-0.209h-0.973v0.209zM3.059 38.748l-0.477 1.23h0.263l0.101-0.28h0.49l0.105 0.28h0.269l-0.488-1.23h-0.263zM3.020 39.491l0.167-0.456 0.167 0.456h-0.335zM6.083 39.525h0.284v0.158c-0.083 0.067-0.186 0.103-0.292 0.104-0.050 0.003-0.099-0.006-0.145-0.027s-0.085-0.051-0.116-0.091c-0.065-0.094-0.097-0.207-0.091-0.321 0-0.274 0.119-0.411 0.354-0.411 0.062-0.006 0.124 0.010 0.175 0.046s0.088 0.089 0.103 0.15l0.243-0.047c-0.053-0.241-0.226-0.362-0.522-0.362-0.158-0.004-0.312 0.052-0.43 0.158-0.062 0.061-0.11 0.135-0.141 0.217s-0.043 0.169-0.037 0.256c-0.007 0.168 0.049 0.333 0.158 0.462 0.060 0.062 0.133 0.11 0.214 0.141s0.167 0.044 0.253 0.038c0.192 0.005 0.38-0.065 0.522-0.196v-0.485h-0.533v0.207zM9.171 38.748h-0.249v1.23h0.862v-0.209h-0.613v-1.021zM11.783 38.748h-0.249v1.23h0.249v-1.23zM14.336 39.57l-0.504-0.822h-0.241v1.23h0.232v-0.804l0.494 0.804h0.247v-1.23h-0.228v0.822zM16.644 39.437h0.613v-0.209h-0.613v-0.27h0.66v-0.209h-0.909v1.23h0.934v-0.209h-0.685v-0.333zM22.24 39.233h-0.485v-0.485h-0.247v1.23h0.247v-0.538h0.485v0.538h0.247v-1.23h-0.247v0.485zM24.562 39.437h0.615v-0.209h-0.615v-0.27h0.662v-0.209h-0.909v1.23h0.932v-0.209h-0.685v-0.333zM27.71 39.437c0.214-0.033 0.323-0.147 0.323-0.342 0.006-0.052-0.002-0.105-0.023-0.154s-0.055-0.090-0.098-0.12c-0.111-0.056-0.236-0.081-0.36-0.072h-0.521v1.23h0.247v-0.514h0.049c0.053-0.003 0.105 0.006 0.154 0.027 0.036 0.022 0.066 0.053 0.088 0.090l0.269 0.391h0.296l-0.15-0.241c-0.066-0.119-0.16-0.22-0.272-0.295zM27.461 39.266h-0.183v-0.309h0.195c0.085-0.007 0.17 0.003 0.251 0.029 0.018 0.016 0.032 0.036 0.042 0.058s0.014 0.046 0.013 0.070c-0.001 0.024-0.008 0.048-0.019 0.069s-0.027 0.040-0.047 0.054c-0.081 0.025-0.166 0.035-0.251 0.029zM30.084 39.437h0.613v-0.209h-0.613v-0.27h0.662v-0.209h-0.911v1.23h0.934v-0.209h-0.685v-0.333z"></path>
</symbol>
<symbol id="YAnCO-company" viewBox="0 0 35 40">
<path d="M5.106 0l5.964 5.646-11.070-0.007v27.393h28.936v-10.474l5.957 5.64v-28.199h-29.787zM28.674 21.896l-16.91-16.009h16.91v16.009zM23.424 29.026h-18.845v-18.423h1.332v17.176h17.513v1.248zM9.029 36.68l-0.696 1.434-0.696-1.434h-0.584l1.016 1.912v1.114h0.528v-1.114l1.014-1.912h-0.582zM9.904 39.705l0.245-0.704h1.172l0.247 0.704h0.549l-1.145-3.025h-0.472l-1.143 3.025h0.546zM10.735 37.322l0.438 1.255h-0.877l0.438-1.255zM13.506 38.504c-0.076 0.116-0.114 0.244-0.114 0.384 0 0.255 0.089 0.462 0.268 0.621 0.18 0.158 0.42 0.237 0.719 0.237s0.557-0.081 0.773-0.243l0.17 0.202h0.586l-0.445-0.526c0.175-0.238 0.262-0.544 0.262-0.916h-0.438c0 0.204-0.042 0.389-0.127 0.555l-0.584-0.69 0.206-0.15c0.145-0.105 0.25-0.211 0.314-0.316 0.064-0.107 0.096-0.223 0.096-0.349 0-0.191-0.071-0.351-0.212-0.48-0.14-0.13-0.32-0.195-0.54-0.195-0.244 0-0.438 0.069-0.582 0.208-0.144 0.137-0.216 0.324-0.216 0.561 0 0.097 0.023 0.197 0.069 0.301 0.047 0.104 0.13 0.23 0.247 0.378-0.224 0.161-0.375 0.3-0.451 0.418zM14.872 39.173c-0.148 0.114-0.308 0.17-0.478 0.17-0.151 0-0.271-0.044-0.362-0.131s-0.135-0.201-0.135-0.341c0-0.162 0.083-0.306 0.249-0.432l0.064-0.046 0.661 0.779zM14.329 37.833c-0.143-0.176-0.214-0.322-0.214-0.438 0-0.101 0.029-0.185 0.087-0.251s0.136-0.1 0.235-0.1c0.091 0 0.167 0.028 0.226 0.085 0.060 0.055 0.089 0.123 0.089 0.202 0 0.119-0.043 0.217-0.129 0.293l-0.064 0.052-0.231 0.158zM19.254 39.477c0.208-0.182 0.327-0.434 0.357-0.756h-0.524c-0.028 0.216-0.093 0.371-0.197 0.463s-0.259 0.139-0.465 0.139c-0.226 0-0.398-0.086-0.515-0.258-0.116-0.172-0.175-0.421-0.175-0.748v-0.268c0.003-0.323 0.065-0.567 0.187-0.733 0.123-0.168 0.299-0.251 0.528-0.251 0.197 0 0.346 0.048 0.447 0.145 0.103 0.096 0.166 0.252 0.191 0.47h0.524c-0.033-0.331-0.152-0.587-0.355-0.769s-0.472-0.272-0.806-0.272c-0.248 0-0.467 0.059-0.657 0.177-0.188 0.118-0.333 0.285-0.434 0.503s-0.152 0.469-0.152 0.754v0.283c0.004 0.278 0.056 0.523 0.156 0.733s0.241 0.373 0.424 0.488c0.184 0.114 0.397 0.17 0.638 0.17 0.345 0 0.621-0.090 0.829-0.27zM22.343 39.053c0.103-0.224 0.154-0.485 0.154-0.781v-0.168c-0.001-0.295-0.054-0.553-0.158-0.775-0.104-0.223-0.251-0.393-0.443-0.511-0.19-0.119-0.408-0.179-0.654-0.179s-0.465 0.060-0.657 0.181c-0.19 0.119-0.337 0.292-0.443 0.517-0.104 0.226-0.156 0.486-0.156 0.781v0.17c0.001 0.289 0.054 0.545 0.158 0.767 0.105 0.222 0.254 0.393 0.445 0.513 0.193 0.119 0.411 0.179 0.657 0.179 0.248 0 0.467-0.060 0.657-0.179 0.191-0.121 0.338-0.292 0.441-0.515zM21.78 37.343c0.127 0.179 0.191 0.436 0.191 0.771v0.158c0 0.341-0.063 0.6-0.189 0.777-0.125 0.177-0.303 0.266-0.536 0.266-0.23 0-0.41-0.091-0.54-0.272-0.129-0.181-0.193-0.438-0.193-0.771v-0.174c0.003-0.326 0.068-0.577 0.195-0.754 0.129-0.179 0.307-0.268 0.534-0.268 0.233 0 0.412 0.089 0.538 0.268z"></path>
</symbol>
<symbol id="brand-company" viewBox="0 0 54 40">
<path d="M4.048 32.966c0.207 0.235 0.318 0.529 0.312 0.831 0.011 0.197-0.027 0.394-0.111 0.576s-0.211 0.344-0.372 0.475c-0.403 0.279-0.902 0.415-1.406 0.383h-2.471v-5.269h2.421c0.478-0.029 0.952 0.095 1.341 0.35 0.156 0.12 0.28 0.271 0.362 0.442s0.118 0.357 0.108 0.544c0.014 0.291-0.086 0.576-0.281 0.806-0.188 0.209-0.447 0.354-0.737 0.412 0.328 0.055 0.624 0.214 0.835 0.45zM1.15 32.171h1.035c0.235 0.016 0.469-0.046 0.658-0.175 0.078-0.064 0.138-0.144 0.177-0.234s0.054-0.185 0.045-0.281c0.007-0.095-0.009-0.191-0.046-0.28s-0.097-0.169-0.173-0.235c-0.195-0.133-0.436-0.196-0.678-0.178h-1.018v1.382zM2.944 34.191c0.083-0.066 0.148-0.149 0.191-0.242s0.061-0.193 0.054-0.294c0.006-0.102-0.013-0.203-0.056-0.297s-0.11-0.177-0.194-0.244c-0.202-0.137-0.451-0.205-0.703-0.191h-1.085v1.449h1.099c0.247 0.013 0.492-0.051 0.694-0.183zM8.997 35.231l-1.347-2.059h-0.506v2.059h-1.158v-5.269h2.193c0.553-0.035 1.099 0.125 1.527 0.448 0.306 0.286 0.491 0.663 0.521 1.063s-0.097 0.796-0.358 1.118c-0.271 0.284-0.64 0.473-1.046 0.535l1.434 2.106h-1.259zM7.144 32.454h0.947c0.658 0 0.987-0.266 0.987-0.798 0.007-0.109-0.011-0.217-0.053-0.319s-0.106-0.195-0.189-0.273c-0.208-0.158-0.476-0.235-0.745-0.214h-0.959l0.011 1.604zM15.328 34.171h-2.308l-0.408 1.061h-1.215l2.12-5.21h1.313l2.111 5.21h-1.214l-0.399-1.061zM15.019 33.373l-0.843-2.224-0.843 2.224h1.687zM23.253 35.231h-1.15l-2.578-3.583v3.583h-1.147v-5.269h1.147l2.578 3.604v-3.604h1.15v5.269zM29.815 33.97c-0.238 0.398-0.6 0.721-1.040 0.929-0.501 0.231-1.056 0.346-1.617 0.332h-2.047v-5.269h2.047c0.56-0.013 1.114 0.098 1.617 0.324 0.44 0.203 0.803 0.523 1.040 0.919 0.237 0.429 0.36 0.902 0.36 1.382s-0.123 0.954-0.36 1.382zM28.499 33.844c0.328-0.35 0.509-0.796 0.509-1.258s-0.18-0.907-0.509-1.257c-0.397-0.317-0.914-0.478-1.439-0.448h-0.798v3.411h0.798c0.526 0.030 1.043-0.131 1.439-0.448zM16.047 0.653s14.841 5.13 14.527 12.554v12.557s-14.83-5.133-14.521-12.557l-0.006-12.554zM43.796 22.824c2.803-1.766 6.045-2.86 9.429-3.182v-3.931c-3.9 1.376-7.208 3.871-9.429 7.113z"></path>
<path d="M42.112 24.008c2.294-4.23 6.271-7.494 11.114-9.12v-11.326s-21.136 7.308-20.689 17.88v17.878s0.942-0.327 2.423-0.94c0-0.571 0-1.148 0.067-1.727 0.437-4.908 2.986-9.456 7.085-12.644z"></path>
<path d="M40.102 30.649c0.111-1.24 0.359-2.466 0.739-3.661-2.552 2.753-4.098 6.17-4.419 9.769-0.031 0.34-0.048 0.68-0.056 1.030 1.2-0.528 2.598-1.187 4.065-1.962-0.374-1.703-0.485-3.446-0.329-5.177zM40.943 30.714c-0.141 1.566-0.053 3.143 0.261 4.688 5.775-3.164 12.263-8.052 12.013-13.96v-0.515c-4.126 0.423-7.986 2.074-10.987 4.7-0.703 1.628-1.137 3.342-1.288 5.087z"></path>
</symbol>
<symbol id="cube-company" viewBox="0 0 84 40">
<path d="M42.156 19.029c-0.394-0.524-0.582-1.144-0.537-1.768v-2.563c0-0.786 0.178-1.383 0.534-1.791s0.968-0.612 1.836-0.61c0.815 0 1.394 0.174 1.736 0.521 0.373 0.444 0.555 0.986 0.513 1.533v0.602h-1.458v-0.61c0.005-0.2-0.009-0.399-0.042-0.597-0.021-0.135-0.094-0.26-0.208-0.355-0.15-0.102-0.338-0.151-0.528-0.138-0.2-0.013-0.398 0.039-0.556 0.146-0.127 0.105-0.212 0.242-0.242 0.391-0.042 0.209-0.061 0.421-0.057 0.634v3.11c-0.023 0.3 0.041 0.6 0.187 0.873 0.073 0.092 0.173 0.166 0.291 0.212s0.248 0.063 0.376 0.049c0.187 0.013 0.372-0.037 0.516-0.141 0.119-0.102 0.195-0.235 0.217-0.378 0.034-0.206 0.049-0.415 0.045-0.623v-0.631h1.458v0.576c0.041 0.57-0.136 1.136-0.504 1.611-0.335 0.381-0.906 0.571-1.745 0.571s-1.474-0.203-1.833-0.626zM48.228 19.056c-0.368-0.399-0.553-0.98-0.553-1.749v-2.696c0-0.761 0.184-1.337 0.553-1.729s0.984-0.586 1.848-0.584c0.858 0 1.471 0.195 1.839 0.584 0.368 0.391 0.556 0.967 0.556 1.729v2.696c0 0.761-0.187 1.345-0.562 1.747s-0.984 0.602-1.833 0.602c-0.849 0-1.477-0.203-1.848-0.6zM50.756 18.409c0.132-0.25 0.192-0.524 0.175-0.798v-3.301c0.017-0.269-0.042-0.537-0.172-0.782-0.074-0.094-0.177-0.169-0.298-0.215s-0.254-0.062-0.385-0.046c-0.131-0.016-0.265 0-0.386 0.046s-0.225 0.12-0.3 0.214c-0.133 0.244-0.193 0.513-0.175 0.782v3.316c-0.018 0.274 0.042 0.548 0.175 0.798 0.085 0.084 0.19 0.151 0.308 0.198s0.246 0.070 0.375 0.070c0.129 0 0.257-0.024 0.375-0.070s0.223-0.114 0.308-0.198v-0.016zM54.225 12.377h1.57l1.181 4.974 1.208-4.974h1.528l0.154 7.179h-1.129l-0.121-4.989-1.166 4.989h-0.906l-1.208-5.008-0.112 5.008h-1.141l0.142-7.179zM61.627 12.377h2.446c1.409 0 2.114 0.679 2.114 2.039 0 1.302-0.742 1.952-2.226 1.95h-0.833v3.191h-1.51l0.009-7.179zM63.717 15.445c0.149 0.016 0.301 0.005 0.444-0.035s0.275-0.105 0.386-0.192c0.173-0.243 0.249-0.527 0.217-0.811 0.008-0.219-0.016-0.438-0.073-0.652-0.022-0.071-0.059-0.138-0.111-0.197s-0.117-0.108-0.191-0.145c-0.21-0.087-0.441-0.126-0.673-0.115h-0.586v2.145h0.586zM68.364 12.377h1.622l1.664 7.179h-1.407l-0.329-1.655h-1.446l-0.338 1.655h-1.428l1.664-7.179zM69.75 17.069l-0.565-3.014-0.565 3.014h1.129zM72.993 12.377h1.057l2.023 4.095v-4.095h1.253v7.179h-1.006l-2.035-4.275v4.275h-1.295l0.003-7.179zM80.262 16.818l-1.682-4.432h1.416l1.027 2.847 0.963-2.847h1.386l-1.661 4.432v2.737h-1.449v-2.737zM44.487 22.695v0.375h-1.232v2.917h-0.516v-2.917h-1.238v-0.375h2.986zM48.349 25.988h-0.399c-0.040 0.002-0.080-0.009-0.112-0.031-0.030-0.019-0.053-0.045-0.066-0.076l-0.356-0.782h-1.709l-0.356 0.782c-0.010 0.033-0.029 0.063-0.054 0.089-0.032 0.022-0.071 0.033-0.112 0.031h-0.399l1.51-3.293h0.526l1.528 3.279zM45.849 24.765h1.425l-0.604-1.34c-0.045-0.101-0.082-0.205-0.112-0.31-0.021 0.063-0.039 0.122-0.057 0.175l-0.054 0.138-0.598 1.337zM50.952 25.664c0.095 0.004 0.189 0.004 0.284 0 0.082-0.007 0.163-0.020 0.242-0.039 0.074-0.016 0.147-0.036 0.217-0.060 0.066-0.023 0.133-0.052 0.202-0.081v-0.741h-0.604c-0.015 0.001-0.030-0.001-0.044-0.006s-0.027-0.011-0.038-0.020c-0.010-0.007-0.018-0.017-0.023-0.027s-0.008-0.022-0.007-0.033v-0.253h1.172v1.262c-0.096 0.059-0.197 0.111-0.302 0.156-0.108 0.046-0.22 0.083-0.335 0.112-0.123 0.031-0.25 0.054-0.378 0.068-0.146 0.014-0.294 0.021-0.441 0.021-0.26 0.002-0.519-0.040-0.761-0.122-0.226-0.078-0.431-0.196-0.604-0.344-0.168-0.15-0.3-0.327-0.389-0.521-0.095-0.218-0.142-0.45-0.139-0.683-0.003-0.235 0.043-0.468 0.136-0.688 0.087-0.195 0.219-0.373 0.389-0.521 0.172-0.148 0.378-0.264 0.604-0.342 0.259-0.084 0.533-0.126 0.809-0.123 0.141-0 0.281 0.009 0.42 0.029 0.123 0.017 0.243 0.045 0.359 0.083 0.106 0.034 0.207 0.078 0.302 0.13 0.093 0.051 0.18 0.109 0.263 0.172l-0.145 0.203c-0.011 0.019-0.028 0.034-0.049 0.045s-0.044 0.017-0.069 0.017c-0.033-0.001-0.066-0.010-0.094-0.026-0.045-0.021-0.094-0.047-0.148-0.078-0.064-0.035-0.132-0.064-0.202-0.089-0.090-0.031-0.183-0.056-0.278-0.073-0.126-0.020-0.255-0.030-0.384-0.029-0.199-0.002-0.397 0.029-0.583 0.091-0.168 0.058-0.32 0.147-0.444 0.261-0.125 0.118-0.221 0.258-0.281 0.409-0.135 0.357-0.135 0.741 0 1.098 0.066 0.155 0.169 0.296 0.302 0.415 0.124 0.113 0.274 0.202 0.441 0.261 0.192 0.057 0.395 0.079 0.598 0.065zM55.766 25.612h1.649v0.375h-2.153v-3.293h0.516l-0.012 2.917zM59.13 25.987h-0.516v-3.293h0.516v3.293zM61.050 22.71c0.031 0.015 0.057 0.036 0.078 0.060l2.207 2.482c-0.003-0.039-0.003-0.078 0-0.117v-2.453h0.45v3.306h-0.26c-0.038 0.003-0.077-0.004-0.112-0.018-0.031-0.016-0.059-0.038-0.082-0.063l-2.204-2.479v2.56h-0.432v-3.293h0.269c0.029 0 0.058 0.005 0.085 0.016zM67.588 22.695v0.362h-1.83v1.087h1.483v0.349h-1.483v1.124h1.83v0.362h-2.361v-3.285h2.361zM13.477 2.36l22.929 5.621v19.696l-22.929-5.618v-19.699zM12.006 0.682v22.334l25.867 6.343v-22.332l-25.867-6.345z"></path>
<path d="M25.87 39.726l-25.87-6.348v-22.332l25.87 6.346v22.334z"></path>
<path d="M12.435 2.108l22.63 5.55-9.624 8.311-22.633-5.553 9.627-8.308zM12.006 0.682l-12.006 10.365 25.87 6.345 12.003-10.365-25.867-6.345zM27.326 38.47l10.548-9.109-10.548-2.589v11.697z"></path>
</symbol>
<symbol id="orange-company" viewBox="0 0 43 40">
<path d="M7.054 39.144c0.015 0 0.030 0.003 0.044 0.009s0.026 0.013 0.037 0.023l0.208 0.199c-0.161 0.161-0.361 0.289-0.584 0.377-0.262 0.096-0.544 0.142-0.828 0.135-0.267 0.005-0.532-0.038-0.779-0.126-0.223-0.081-0.423-0.202-0.587-0.356-0.167-0.16-0.296-0.347-0.379-0.551-0.091-0.227-0.136-0.466-0.132-0.706-0.004-0.242 0.045-0.482 0.143-0.708 0.091-0.205 0.228-0.392 0.403-0.551 0.177-0.155 0.389-0.278 0.623-0.359 0.256-0.086 0.528-0.129 0.802-0.126 0.255-0.005 0.508 0.034 0.745 0.115 0.206 0.078 0.394 0.185 0.558 0.318l-0.174 0.212c-0.012 0.015-0.027 0.028-0.044 0.038-0.021 0.012-0.045 0.018-0.070 0.016-0.027-0.002-0.053-0.009-0.075-0.023l-0.093-0.056-0.13-0.072c-0.056-0.027-0.114-0.050-0.174-0.070-0.077-0.024-0.156-0.043-0.236-0.056-0.102-0.016-0.205-0.024-0.309-0.023-0.197-0.002-0.394 0.030-0.576 0.095-0.171 0.060-0.325 0.151-0.452 0.266-0.129 0.123-0.229 0.267-0.293 0.424-0.073 0.18-0.109 0.369-0.106 0.56-0.003 0.194 0.033 0.386 0.106 0.569 0.063 0.156 0.161 0.299 0.288 0.422 0.119 0.115 0.266 0.204 0.431 0.262 0.169 0.061 0.351 0.092 0.535 0.090 0.106 0.001 0.212-0.005 0.317-0.018 0.171-0.018 0.335-0.070 0.48-0.151 0.073-0.042 0.141-0.088 0.205-0.14 0.027-0.022 0.062-0.035 0.099-0.036zM13.052 38.146c0.003 0.239-0.044 0.477-0.14 0.702-0.085 0.204-0.218 0.389-0.391 0.545s-0.382 0.278-0.614 0.358c-0.508 0.168-1.070 0.168-1.579 0-0.23-0.081-0.438-0.204-0.61-0.359-0.173-0.158-0.307-0.346-0.395-0.55-0.187-0.454-0.187-0.951 0-1.406 0.089-0.205 0.223-0.393 0.395-0.553 0.174-0.15 0.382-0.268 0.61-0.345 0.508-0.172 1.071-0.172 1.579 0 0.231 0.081 0.439 0.204 0.613 0.359 0.171 0.157 0.304 0.342 0.392 0.544 0.096 0.226 0.144 0.465 0.14 0.706zM12.506 38.146c0.004-0.192-0.029-0.382-0.099-0.564-0.058-0.156-0.153-0.299-0.278-0.422-0.122-0.116-0.272-0.207-0.439-0.266-0.369-0.123-0.778-0.123-1.148 0-0.167 0.059-0.317 0.15-0.439 0.266-0.127 0.122-0.222 0.266-0.28 0.422-0.132 0.367-0.132 0.761 0 1.128 0.059 0.156 0.154 0.3 0.28 0.422 0.122 0.115 0.272 0.205 0.439 0.264 0.37 0.12 0.778 0.12 1.148 0 0.167-0.059 0.317-0.149 0.439-0.264 0.124-0.123 0.219-0.266 0.278-0.422 0.070-0.182 0.103-0.373 0.099-0.564zM17.144 38.738l0.055 0.126c0.021-0.045 0.039-0.086 0.060-0.126 0.020-0.042 0.042-0.084 0.068-0.124l1.327-2.096c0.026-0.036 0.049-0.059 0.075-0.065 0.035-0.009 0.072-0.013 0.109-0.011h0.392v3.409h-0.465v-2.612c-0.002-0.039-0.002-0.078 0-0.117l-1.335 2.125c-0.017 0.032-0.044 0.059-0.078 0.078s-0.074 0.029-0.114 0.028h-0.075c-0.040 0-0.080-0.009-0.114-0.028s-0.061-0.046-0.078-0.078l-1.374-2.139v2.736h-0.449v-3.402h0.392c0.037-0.002 0.074 0.002 0.109 0.011 0.032 0.014 0.058 0.037 0.073 0.065l1.355 2.098c0.027 0.039 0.049 0.080 0.068 0.122zM22.137 38.568v1.277h-0.519v-3.404h1.158c0.219-0.004 0.437 0.021 0.647 0.074 0.168 0.041 0.324 0.114 0.457 0.212 0.115 0.092 0.204 0.206 0.26 0.334 0.061 0.139 0.091 0.287 0.088 0.435 0.002 0.149-0.030 0.297-0.096 0.435-0.062 0.131-0.158 0.247-0.28 0.341-0.133 0.102-0.29 0.179-0.46 0.226-0.202 0.056-0.414 0.083-0.626 0.079l-0.628-0.009zM22.137 38.203h0.628c0.137 0.002 0.272-0.016 0.402-0.052 0.107-0.031 0.206-0.081 0.291-0.147 0.078-0.062 0.138-0.14 0.177-0.226 0.042-0.091 0.064-0.188 0.062-0.286 0.006-0.095-0.012-0.189-0.052-0.277s-0.102-0.167-0.182-0.232c-0.198-0.135-0.448-0.2-0.699-0.183h-0.628v1.403zM29.117 39.85h-0.41c-0.041 0.001-0.082-0.010-0.114-0.032-0.029-0.021-0.053-0.048-0.068-0.079l-0.353-0.824h-1.773l-0.366 0.824c-0.013 0.030-0.036 0.057-0.065 0.077-0.033 0.023-0.074 0.035-0.117 0.034h-0.41l1.558-3.409h0.54l1.579 3.409zM26.547 38.584h1.464l-0.618-1.388c-0.047-0.104-0.086-0.211-0.117-0.32l-0.060 0.178c-0.018 0.054-0.039 0.104-0.057 0.144l-0.613 1.385zM31.361 36.457c0.031 0.015 0.058 0.036 0.078 0.061l2.272 2.57v-2.646h0.465v3.409h-0.26c-0.037 0.001-0.073-0.006-0.106-0.020-0.032-0.016-0.060-0.038-0.083-0.063l-2.269-2.568c0.002 0.039 0.002 0.078 0 0.117v2.534h-0.465v-3.409h0.275c0.032-0.001 0.064 0.005 0.094 0.016zM38.003 38.494v1.354h-0.519v-1.354l-1.436-2.053h0.465c0.040-0.002 0.080 0.008 0.112 0.029 0.028 0.022 0.052 0.048 0.070 0.077l0.898 1.324c0.036 0.056 0.068 0.108 0.094 0.158s0.047 0.097 0.065 0.144l0.068-0.147c0.025-0.054 0.055-0.106 0.088-0.156l0.885-1.333c0.019-0.027 0.041-0.051 0.068-0.072 0.031-0.023 0.071-0.036 0.112-0.034h0.47l-1.439 2.062zM16.887 30.72c0.226 0.025 0.454 0.045 0.686 0.063 3.504-1.362 6.468-3.591 8.521-6.408s3.106-6.098 3.026-9.432l-3.861-3.355c0.785 3.55 0.418 7.219-1.061 10.598s-4.010 6.334-7.311 8.534z"></path>
<path d="M15.508 30.564l0.104 0.018c3.527-2.192 6.217-5.253 7.72-8.788s1.752-7.38 0.713-11.038l-5.5-4.778c2.224 3.928 3.12 8.323 2.582 12.676s-2.487 8.483-5.62 11.911zM34.16 18.882c-0.934 3.663-3.204 6.967-6.471 9.421-0.954 0.721-1.983 1.363-3.074 1.918 2.66-0.679 5.106-1.881 7.147-3.511s3.625-3.646 4.628-5.892l-2.231-1.936z"></path>
<path d="M33.285 18.343l-3.176-2.759c-0.061 3.146-1.090 6.22-2.981 8.903s-4.574 4.877-7.772 6.355h0.016c0.713-0 1.424-0.037 2.132-0.111 2.988-1.060 5.628-2.745 7.683-4.907s3.463-4.732 4.098-7.481zM15.968 3.963l-3.789-3.296c-3.387 1.137-6.3 3.136-8.357 5.735s-3.164 5.678-3.175 8.832c0.013 3.486 1.363 6.868 3.837 9.612s5.931 4.693 9.824 5.537c3.475-3.678 5.509-8.223 5.807-12.974s-1.155-9.462-4.148-13.447zM42.038 17.836c-0.014-4.136-1.911-8.099-5.276-11.023s-7.927-4.573-12.687-4.584c-2.2-0.002-4.38 0.351-6.432 1.040l23.196 20.153c0.794-1.781 1.201-3.676 1.2-5.586z"></path>
</symbol>
<symbol id="svg-linkedin" viewBox="0 0 40 40">
<path d="M39.99 40v-0.002h0.010v-14.67c0-7.177-1.545-12.705-9.935-12.705-4.033 0-6.74 2.213-7.845 4.312h-0.117v-3.642h-7.955v26.705h8.283v-13.223c0-3.482 0.66-6.848 4.972-6.848 4.248 0 4.312 3.973 4.312 7.072v13.002h8.275zM0.66 13.295h8.293v26.705h-8.293v-26.705zM4.803 0c-2.652 0-4.803 2.152-4.803 4.803s2.152 4.848 4.803 4.848c2.652 0 4.803-2.197 4.803-4.848-0.002-2.652-2.153-4.803-4.803-4.803z"></path>
</symbol>
<symbol id="svg-instagram" viewBox="0 0 40 40">
<path d="M39.961 11.76c-0.094-2.125-0.437-3.586-0.93-4.853-0.508-1.344-1.289-2.547-2.313-3.547-1-1.016-2.211-1.805-3.54-2.305-1.273-0.492-2.727-0.836-4.852-0.93-2.141-0.102-2.821-0.125-8.252-0.125s-6.111 0.024-8.244 0.117c-2.125 0.094-3.587 0.438-4.852 0.93-1.344 0.508-2.547 1.289-3.548 2.313-1.016 1-1.805 2.211-2.305 3.54-0.492 1.274-0.836 2.727-0.93 4.852-0.102 2.141-0.125 2.821-0.125 8.252s0.024 6.11 0.117 8.244c0.094 2.125 0.438 3.586 0.93 4.853 0.508 1.344 1.297 2.547 2.313 3.547 1 1.016 2.211 1.805 3.54 2.305 1.274 0.492 2.727 0.836 4.853 0.93 2.133 0.094 2.813 0.117 8.244 0.117s6.11-0.023 8.244-0.117c2.125-0.094 3.586-0.437 4.852-0.93 2.688-1.039 4.814-3.165 5.853-5.853 0.492-1.274 0.836-2.727 0.93-4.853 0.094-2.133 0.117-2.813 0.117-8.244s-0.008-6.111-0.102-8.244zM36.359 28.091c-0.086 1.954-0.414 3.008-0.688 3.712-0.672 1.743-2.055 3.126-3.798 3.798-0.703 0.274-1.766 0.602-3.712 0.687-2.11 0.094-2.743 0.117-8.080 0.117s-5.978-0.023-8.080-0.117c-1.954-0.086-3.008-0.414-3.712-0.687-0.867-0.32-1.657-0.828-2.297-1.493-0.664-0.649-1.172-1.43-1.493-2.297-0.274-0.703-0.602-1.766-0.687-3.712-0.094-2.11-0.117-2.743-0.117-8.080s0.023-5.978 0.117-8.079c0.086-1.954 0.414-3.008 0.687-3.712 0.321-0.867 0.828-1.657 1.501-2.298 0.648-0.664 1.43-1.172 2.297-1.492 0.703-0.273 1.766-0.602 3.712-0.688 2.11-0.094 2.743-0.117 8.080-0.117 5.345 0 5.978 0.024 8.080 0.117 1.954 0.086 3.008 0.414 3.712 0.688 0.867 0.32 1.656 0.828 2.297 1.492 0.664 0.649 1.172 1.43 1.493 2.298 0.273 0.703 0.602 1.766 0.688 3.712 0.094 2.11 0.117 2.743 0.117 8.079s-0.023 5.962-0.117 8.072z"></path>
<path d="M20.074 9.728c-5.673 0-10.275 4.602-10.275 10.275s4.603 10.275 10.275 10.275c5.673 0 10.276-4.602 10.276-10.275s-4.602-10.275-10.276-10.275zM20.074 26.669c-3.68 0-6.665-2.985-6.665-6.665s2.985-6.665 6.665-6.665c3.681 0 6.665 2.985 6.665 6.665s-2.985 6.665-6.665 6.665zM33.155 9.322c0 1.325-1.074 2.399-2.399 2.399s-2.399-1.074-2.399-2.399c0-1.325 1.074-2.399 2.399-2.399s2.399 1.074 2.399 2.399z"></path>
</symbol>
<symbol id="svg-facebook" viewBox="0 0 40 40">
<path d="M26.662 6.642h3.652v-6.36c-0.63-0.087-2.797-0.282-5.32-0.282-5.265 0-8.872 3.312-8.872 9.398v5.602h-5.81v7.11h5.81v17.89h7.123v-17.888h5.575l0.885-7.11h-6.462v-4.898c0.002-2.055 0.555-3.462 3.418-3.462z"></path>
</symbol>
<symbol id="svg-twitter" viewBox="0 0 40 40">
<path d="M40 7.598c-1.487 0.652-3.073 1.085-4.725 1.295 1.7-1.015 2.998-2.61 3.607-4.533-1.585 0.945-3.335 1.612-5.2 1.985-1.505-1.603-3.65-2.595-5.99-2.595-4.54 0-8.195 3.685-8.195 8.203 0 0.65 0.055 1.275 0.19 1.87-6.817-0.332-12.85-3.6-16.902-8.578-0.707 1.228-1.123 2.632-1.123 4.145 0 2.84 1.462 5.357 3.643 6.815-1.318-0.025-2.61-0.407-3.705-1.010v0.090c0 3.985 2.842 7.295 6.57 8.057-0.668 0.183-1.395 0.27-2.15 0.27-0.525 0-1.055-0.030-1.553-0.14 1.063 3.248 4.078 5.635 7.662 5.713-2.79 2.183-6.332 3.497-10.168 3.497-0.673 0-1.318-0.030-1.963-0.112 3.633 2.343 7.937 3.68 12.58 3.68 15.090 0 23.34-12.5 23.34-23.335 0-0.362-0.012-0.713-0.030-1.060 1.628-1.155 2.995-2.598 4.11-4.258z"></path>
</symbol>
</defs>
</svg>
