<!-- Generated by IcoMoon.io -->
<svg version="1.1" xmlns="http://www.w3.org/2000/svg" width="70" height="70" viewBox="0 0 70 70">
<path d="M68.461 33.471c-0.004-18.49-14.996-33.475-33.486-33.471s-33.475 14.996-33.471 33.486c0.003 14.564 9.421 27.455 23.296 31.885 0.132 0.042 0.27 0.063 0.409 0.062 0.264-0 0.522-0.071 0.749-0.205 0.295-0.175 0.516-0.452 0.619-0.78l8.455-26.797c2.311-0.012 4.175-1.895 4.163-4.206s-1.895-4.175-4.206-4.163c-0.622 0.003-1.235 0.146-1.794 0.419l-11.169-11.171c-0.554-0.535-1.437-0.52-1.972 0.034-0.522 0.541-0.522 1.398 0 1.939l11.163 11.176c-0.857 1.748-0.367 3.859 1.173 5.051l-8.056 25.534c-15.92-5.864-24.072-23.524-18.208-39.444s23.524-24.072 39.444-18.208 24.072 23.525 18.208 39.444c-2.865 7.778-8.752 14.068-16.323 17.442l-0.871-4.1c-0.159-0.754-0.9-1.235-1.653-1.076-0.238 0.051-0.458 0.162-0.64 0.324l-8.393 7.493c-0.576 0.512-0.627 1.394-0.114 1.97 0.167 0.187 0.38 0.326 0.619 0.402l10.716 3.42c0.733 0.235 1.519-0.168 1.754-0.902 0.075-0.232 0.087-0.479 0.037-0.717l-0.856-4.023c12.391-5.224 20.436-17.373 20.407-30.82zM34.983 32.077c0.77 0 1.395 0.625 1.395 1.395s-0.625 1.395-1.395 1.395c-0.771 0-1.395-0.624-1.395-1.395s0.624-1.395 1.395-1.395zM39.577 64.592l4.778-4.262 1.319 6.213-6.096-1.951z"></path>
<path d="M33.588 6.967v2.79c0 0.771 0.624 1.395 1.395 1.395s1.395-0.624 1.395-1.395v-2.79c0-0.77-0.625-1.395-1.395-1.395s-1.395 0.625-1.395 1.395zM8.479 32.076c-0.771 0-1.395 0.625-1.395 1.395s0.624 1.395 1.395 1.395h2.79c0.771 0 1.395-0.624 1.395-1.395s-0.624-1.395-1.395-1.395h-2.79zM61.487 34.866c0.771 0 1.395-0.624 1.395-1.395s-0.624-1.395-1.395-1.395h-2.79c-0.77 0-1.395 0.625-1.395 1.395s0.625 1.395 1.395 1.395h2.79z"></path>
</svg>
